<svg xmlns="http://www.w3.org/2000/svg" xmlns:xlink="http://www.w3.org/1999/xlink" version="1.1" x="0px" y="0px" viewBox="0 0 500 625" style="enable-background:new 0 0 500 500;" xml:space="preserve"><g><path d="M250.1,450.2C139.8,450.2,50,360.4,50,250S139.8,49.8,250.1,49.8S450.3,139.6,450.3,250S360.5,450.2,250.1,450.2z    M250.1,81.8C157.4,81.8,82,157.3,82,250s75.4,168.2,168.1,168.2S418.3,342.7,418.3,250S342.9,81.8,250.1,81.8L250.1,81.8z"/><path d="M250.4,312.8h-0.5c-4.2,0-8.3-1.7-11.3-4.7L165,234.5c-6.2-6.3-6-16.5,0.3-22.6c6.2-6,16.1-6,22.3,0l62.5,62.5l62.5-62.5   c6.1-6.4,16.2-6.7,22.6-0.6s6.7,16.2,0.6,22.6c-0.2,0.2-0.4,0.4-0.6,0.6l-73.6,73.6C258.7,311.1,254.6,312.8,250.4,312.8z"/></g><text x="0" y="515" fill="#000000" font-size="5px" font-weight="bold" font-family="'Helvetica Neue', Helvetica, Arial-Unicode, Arial, Sans-serif">Created by Syed Raheel</text><text x="0" y="520" fill="#000000" font-size="5px" font-weight="bold" font-family="'Helvetica Neue', Helvetica, Arial-Unicode, Arial, Sans-serif">from the Noun Project</text></svg>